{
  "accessors": [
    {
      "bufferView": 2,
      "componentType": 5126,
      "count": 4,
      "max": [
        1,
        1,
        0
      ],
      "min": [
        -1,
        -1,
        0
      ],
      "type": "VEC3"
    },
    {
      "bufferView": 2,
      "byteOffset": 48,
      "componentType": 5126,
      "count": 4,
      "max": [
        0,
        0,
        1
      ],
      "min": [
        0,
        0,
        1
      ],
      "type": "VEC3"
    },
    {
      "bufferView": 3,
      "componentType": 5126,
      "count": 4,
      "max": [
        1,
        0,
        0,
        1
      ],
      "min": [
        1,
        0,
        0,
        1
      ],
      "type": "VEC4"
    },
    {
      "bufferView": 1,
      "componentType": 5126,
      "count": 4,
      "max": [
        5.499000072479248,
        5.499000072479248
      ],
      "min": [
        -4.499000072479248,
        -4.499000072479248
      ],
      "type": "VEC2"
    },
    {
      "bufferView": 0,
      "componentType": 5125,
      "count": 6,
      "max": [
        3
      ],
      "min": [
        0
      ],
      "type": "SCALAR"
    },
    {
      "bufferView": 2,
      "byteOffset": 96,
      "componentType": 5126,
      "count": 6760,
      "max": [
        13.686189651489258,
        9.0239801406860352,
        18.019210815429688
      ],
      "min": [
        -28.013250350952148,
        -9.2248201370239258,
        -150.892822265625
      ],
      "type": "VEC3"
    },
    {
      "bufferView": 2,
      "byteOffset": 81216,
      "componentType": 5126,
      "count": 6760,
      "max": [
        1,
        1,
        1
      ],
      "min": [
        -1,
        -1,
        -1
      ],
      "type": "VEC3"
    },
    {
      "bufferView": 0,
      "byteOffset": 24,
      "componentType": 5125,
      "count": 39984,
      "max": [
        6759
      ],
      "min": [
        0
      ],
      "type": "SCALAR"
    },
    {
      "bufferView": 2,
      "byteOffset": 162336,
      "componentType": 5126,
      "count": 112,
      "max": [
        -15.314999580383301,
        5.2507801055908203,
        -25.923349380493164
      ],
      "min": [
        -26.05364990234375,
        -5.4508700370788574,
        -33.552070617675781
      ],
      "type": "VEC3"
    },
    {
      "bufferView": 2,
      "byteOffset": 163680,
      "componentType": 5126,
      "count": 112,
      "max": [
        0.97078615427017212,
        0.97098487615585327,
        -0.23914119601249695
      ],
      "min": [
        -0.97078615427017212,
        -0.97098487615585327,
        -0.95506274700164795
      ],
      "type": "VEC3"
    },
    {
      "bufferView": 0,
      "byteOffset": 159960,
      "componentType": 5125,
      "count": 528,
      "max": [
        111
      ],
      "min": [
        0
      ],
      "type": "SCALAR"
    }
  ],
  "asset": {
    "generator": "Sketchfab (OSG glTF plugin)",
    "version": "2.0"
  },
  "bufferViews": [
    {
      "buffer": 0,
      "byteLength": 162072,
      "byteOffset": 0,
      "name": "floatBufferViews",
      "target": 34963
    },
    {
      "buffer": 0,
      "byteLength": 32,
      "byteOffset": 162072,
      "byteStride": 8,
      "name": "floatBufferViews",
      "target": 34962
    },
    {
      "buffer": 0,
      "byteLength": 165024,
      "byteOffset": 162104,
      "byteStride": 12,
      "name": "floatBufferViews",
      "target": 34962
    },
    {
      "buffer": 0,
      "byteLength": 64,
      "byteOffset": 327128,
      "byteStride": 16,
      "name": "floatBufferViews",
      "target": 34962
    }
  ],
  "buffers": [
    {
      "byteLength": 327192,
      "uri": "scene.bin"
    }
  ],
  "extensionsRequired": [
    "KHR_materials_pbrSpecularGlossiness"
  ],
  "extensionsUsed": [
    "KHR_materials_pbrSpecularGlossiness"
  ],
  "images": [
    {
      "uri": "textures/dummy_terrain_material_diffuse.jpeg"
    }
  ],
  "materials": [
    {
      "doubleSided": true,
      "emissiveFactor": [
        1,
        1,
        1
      ],
      "extensions": {
        "KHR_materials_pbrSpecularGlossiness": {
          "diffuseFactor": [
            1,
            1,
            1,
            1
          ],
          "glossinessFactor": 0.40000000000000002,
          "specularFactor": [
            1,
            1,
            1
          ]
        }
      },
      "name": "bulb_casing_material"
    },
    {
      "doubleSided": true,
      "emissiveFactor": [
        0,
        0,
        0
      ],
      "extensions": {
        "KHR_materials_pbrSpecularGlossiness": {
          "diffuseFactor": [
            0.010021694899999999,
            0.010021694899999999,
            0.010021694899999999,
            1
          ],
          "glossinessFactor": 0.40000000000000002,
          "specularFactor": [
            0.050000000000000003,
            0.050000000000000003,
            0.050000000000000003
          ]
        }
      },
      "name": "body_material"
    },
    {
      "doubleSided": true,
      "emissiveFactor": [
        0,
        0,
        0
      ],
      "extensions": {
        "KHR_materials_pbrSpecularGlossiness": {
          "diffuseFactor": [
            1,
            1,
            1,
            1
          ],
          "diffuseTexture": {
            "index": 0,
            "texCoord": 0
          },
          "glossinessFactor": 0,
          "specularFactor": [
            0,
            0,
            0
          ]
        }
      },
      "name": "dummy_terrain_material"
    }
  ],
  "meshes": [
    {
      "name": "dummy_terrain_0",
      "primitives": [
        {
          "attributes": {
            "NORMAL": 1,
            "POSITION": 0,
            "TANGENT": 2,
            "TEXCOORD_0": 3
          },
          "indices": 4,
          "material": 2,
          "mode": 4
        }
      ]
    },
    {
      "name": "body_0",
      "primitives": [
        {
          "attributes": {
            "NORMAL": 6,
            "POSITION": 5
          },
          "indices": 7,
          "material": 1,
          "mode": 4
        }
      ]
    },
    {
      "name": "bulb_casing_0",
      "primitives": [
        {
          "attributes": {
            "NORMAL": 9,
            "POSITION": 8
          },
          "indices": 10,
          "material": 0,
          "mode": 4
        }
      ]
    }
  ],
  "nodes": [
    {
      "children": [
        1
      ],
      "name": "RootNode (gltf orientation matrix)",
      "rotation": [
        -0.70710678118654746,
        -0,
        -0,
        0.70710678118654757
      ]
    },
    {
      "children": [
        2
      ],
      "name": "RootNode (model correction matrix)"
    },
    {
      "children": [
        3,
        5,
        8,
        11
      ],
      "name": "Root"
    },
    {
      "children": [
        4
      ],
      "matrix": [
        1,
        0,
        0,
        0,
        0,
        1,
        0,
        0,
        0,
        0,
        1,
        0,
        -0.49989000000000006,
        0.19701000000000005,
        3.2357999999999998,
        1
      ],
      "name": "light"
    },
    {
      "name": "light"
    },
    {
      "children": [
        6
      ],
      "matrix": [
        13.165290000000001,
        0,
        0,
        0,
        0,
        13.165290000000001,
        0,
        0,
        0,
        0,
        6.5826400000000005,
        0,
        0.011660000000000002,
        0.028090000000000004,
        -0.014120000000000001,
        1
      ],
      "name": "dummy_terrain"
    },
    {
      "children": [
        7
      ],
      "name": "Geode"
    },
    {
      "mesh": 0,
      "name": "dummy_terrain_0"
    },
    {
      "children": [
        9
      ],
      "matrix": [
        0.026590000000000006,
        0,
        0,
        0,
        0,
        0.026590000000000006,
        0,
        0,
        0,
        0,
        0.026590000000000006,
        0,
        0.052680000000000012,
        0.17885000000000001,
        3.9896699999999998,
        1
      ],
      "name": "body"
    },
    {
      "children": [
        10
      ],
      "name": "Geode"
    },
    {
      "mesh": 1,
      "name": "body_0"
    },
    {
      "children": [
        12
      ],
      "matrix": [
        0.026590000000000006,
        0,
        0,
        0,
        0,
        0.026590000000000006,
        0,
        0,
        0,
        0,
        0.026590000000000006,
        0,
        0.052680000000000012,
        0.17885000000000001,
        3.9896699999999998,
        1
      ],
      "name": "bulb_casing"
    },
    {
      "children": [
        13
      ],
      "name": "Geode"
    },
    {
      "mesh": 2,
      "name": "bulb_casing_0"
    }
  ],
  "samplers": [
    {
      "magFilter": 9729,
      "minFilter": 9987,
      "wrapS": 10497,
      "wrapT": 10497
    }
  ],
  "scene": 0,
  "scenes": [
    {
      "name": "OSG_Scene",
      "nodes": [
        0
      ]
    }
  ],
  "textures": [
    {
      "sampler": 0,
      "source": 0
    }
  ]
}

